<?xml version="1.0" encoding="UTF-8" standalone="no"?>
<svg
   xmlns:dc="http://purl.org/dc/elements/1.1/"
   xmlns:cc="http://creativecommons.org/ns#"
   xmlns:rdf="http://www.w3.org/1999/02/22-rdf-syntax-ns#"
   xmlns:svg="http://www.w3.org/2000/svg"
   xmlns="http://www.w3.org/2000/svg"
   viewBox="0 0 1139.08 281.51999"
   height="281.51999"
   width="1139.08"
   xml:space="preserve"
   id="svg2"
   version="1.1"><metadata
     id="metadata8"><rdf:RDF><cc:Work
         rdf:about=""><dc:format>image/svg+xml</dc:format><dc:type
           rdf:resource="http://purl.org/dc/dcmitype/StillImage" /></cc:Work></rdf:RDF></metadata><defs
     id="defs6" /><g
     transform="matrix(1.3333333,0,0,-1.3333333,0,281.52)"
     id="g10"><g
       transform="scale(0.1)"
       id="g12"><path
         id="path14"
         style="fill:#0e0f0e;fill-opacity:1;fill-rule:nonzero;stroke:none"
         d="M 281.82,956.949 251.441,726.461 H 485.07 l 28.282,190.687 -30.387,39.801 H 714.5 L 633.836,363.98 H 432.684 l 39.812,261.918 H 237.82 L 201.148,363.98 H -0.00390625 L 80.6758,927.609 39.8125,956.949 H 281.82" /><path
         id="path16"
         style="fill:#0e0f0e;fill-opacity:1;fill-rule:nonzero;stroke:none"
         d="M 1189.1,856.391 1088.49,625.898 h 201.17 l -30.38,230.493 z m 231.51,100.558 79.64,-592.969 h -180.2 l -20.97,161.329 H 1047.64 L 977.453,363.98 H 806.688 l 231.532,563.629 -30.39,29.34 h 412.78" /><path
         id="path18"
         style="fill:#0e0f0e;fill-opacity:1;fill-rule:nonzero;stroke:none"
         d="M 1845.95,856.391 1795.67,464.57 h 231.53 l 59.72,391.821 z m 382.4,100.558 c 9.78,0 18.85,-1.75 27.24,-5.23 8.37,-3.508 15.54,-8.387 21.47,-14.668 5.94,-6.281 9.96,-13.621 12.06,-21.992 2.09,-8.387 1.73,-17.809 -1.05,-28.289 l -70.2,-522.79 h -563.63 c -9.78,0 -18.86,1.731 -27.25,5.231 -8.37,3.5 -15.56,8.391 -21.47,14.668 -5.93,6.301 -9.96,13.781 -12.05,22.543 -2.09,8.707 -1.75,17.957 1.04,27.769 l 70.21,522.758 h 563.63" /><path
         id="path20"
         style="fill:#0e0f0e;fill-opacity:1;fill-rule:nonzero;stroke:none"
         d="m 2488.18,718.09 h -108.96 l 10.46,238.859 h 128.88 L 2488.18,718.09" /><path
         id="path22"
         style="fill:#0e0f0e;fill-opacity:1;fill-rule:nonzero;stroke:none"
         d="m 3020.38,484.469 19.9,120.48 h -402.3 l 50.27,352 h 593 L 3261.33,786.18 h -201.16 l 10.49,70.211 h -191.71 l -30.39,-150.879 h 402.31 l -39.83,-271.321 c 0,-9.812 -2.27,-19.062 -6.79,-27.769 -4.57,-8.762 -10.67,-16.242 -18.36,-22.543 -7.68,-6.277 -16.23,-11.168 -25.65,-14.668 -9.44,-3.5 -19.4,-5.231 -29.86,-5.231 h -522.79 l 19.9,161.329 30.38,-40.84 h 362.51" /><path
         id="path24"
         style="fill:#0e0f0e;fill-opacity:1;fill-rule:nonzero;stroke:none"
         d="m 4543.64,786.18 h -201.15 l 9.44,70.211 H 4110.96 L 4060.68,464.57 h 240.97 l 10.46,120.461 -60.76,100.59 H 4522.7 L 4482.88,363.98 h -563.63 c -9.78,0 -18.86,1.731 -27.25,5.231 -8.37,3.5 -15.56,8.391 -21.47,14.668 -5.93,6.301 -9.96,13.781 -12.05,22.543 -2.1,8.707 -1.75,17.957 1.04,27.769 l 70.21,522.758 h 633.83 L 4543.64,786.18" /><path
         id="path26"
         style="fill:#0e0f0e;fill-opacity:1;fill-rule:nonzero;stroke:none"
         d="M 5038.14,856.391 4937.56,625.898 h 201.14 l -30.38,230.493 z m 231.54,100.558 79.61,-592.969 h -180.2 l -20.95,161.329 H 4896.69 L 4826.5,363.98 h -170.76 l 231.53,563.629 -30.39,29.34 h 412.8" /><path
         id="path28"
         style="fill:#0e0f0e;fill-opacity:1;fill-rule:nonzero;stroke:none"
         d="m 5703.38,856.391 -20.94,-170.77 h 222.09 l 19.9,170.77 z m 431.64,100.558 -39.83,-301.711 c 0,-9.797 -2.26,-19.039 -6.79,-27.769 -4.55,-8.731 -10.67,-16.239 -18.33,-22.52 -7.71,-6.301 -16.23,-11.187 -25.68,-14.668 -9.43,-3.5 -19.37,-5.25 -29.86,-5.25 H 5883.58 L 6095.19,363.98 H 5874.15 L 5673,585.031 5642.61,363.98 h -201.15 l 70.21,553.168 -30.38,39.801 h 653.73" /><path
         id="path30"
         style="fill:#0e0f0e;fill-opacity:1;fill-rule:nonzero;stroke:none"
         d="M 6609.62,856.391 6509.03,625.898 h 201.15 l -30.38,230.493 z m 231.53,100.558 79.62,-592.969 h -180.21 l -20.94,161.329 H 6468.16 L 6397.99,363.98 h -170.78 l 231.54,563.629 -30.38,29.34 h 412.78" /><path
         id="path32"
         style="fill:#0e0f0e;fill-opacity:1;fill-rule:nonzero;stroke:none"
         d="M 7699.15,786.18 H 7498 l 9.44,70.211 H 7266.46 L 7216.19,464.57 h 240.97 l 10.45,120.461 -60.76,100.59 H 7678.2 L 7638.39,363.98 h -563.64 c -9.77,0 -18.85,1.731 -27.24,5.231 -8.37,3.5 -15.56,8.391 -21.47,14.668 -5.94,6.301 -9.96,13.781 -12.06,22.543 -2.09,8.707 -1.75,17.957 1.06,27.769 l 70.19,522.758 h 633.84 L 7699.15,786.18" /><path
         id="path34"
         style="fill:#0e0f0e;fill-opacity:1;fill-rule:nonzero;stroke:none"
         d="m 8436.69,956.949 -9.42,-100.558 h -332.12 l -19.9,-129.93 h 311.15 l -9.43,-100.563 H 8054.3 L 8034.38,464.57 h 352.02 l -9.43,-100.59 h -563.63 l 80.66,553.168 -30.38,39.801 h 573.07" /><path
         id="path36"
         style="fill:#376eb6;fill-opacity:1;fill-rule:nonzero;stroke:none"
         d="M 1676.72,206.93 1613.55,10.8906 h -70.79 l 80.59,240.1404 -9.8,10.899 h 90.93 l 60.45,-181.8792 57.72,170.9802 -9.8,10.899 h 89.31 l 83.32,-251.0394 h -49.01 L 1874.93,205.289 1812.85,10.8906 h -74.06 L 1676.72,206.93" /><path
         id="path38"
         style="fill:#376eb6;fill-opacity:1;fill-rule:nonzero;stroke:none"
         d="M 2088.39,224.891 V 49.0117 h 241.24 V 224.891 Z m -71.34,26.691 -9.79,10.887 h 393.71 V 10.8906 H 2017.05 V 251.582" /><path
         id="path40"
         style="fill:#376eb6;fill-opacity:1;fill-rule:nonzero;stroke:none"
         d="M 2503.88,117.621 V 48.4609 h 220 v 69.1601 z m 0,106.738 v -69.168 h 220 v 69.168 z m -70.79,26.672 -10.34,10.899 h 371.38 v -84.41 l -53.91,-41.391 53.91,-29.949 V 10.8906 H 2433.09 V 251.031" /><path
         id="path42"
         style="fill:#376eb6;fill-opacity:1;fill-rule:nonzero;stroke:none"
         d="m 2825.71,251.031 -9.8,10.899 h 81.13 V 10.8906 h -71.33 V 251.031" /><path
         id="path44"
         style="fill:#376eb6;fill-opacity:1;fill-rule:nonzero;stroke:none"
         d="m 2929.17,251.582 -10.34,10.887 h 81.67 V 49.0117 h 288.62 V 0 c -1.82,4.35938 -4.72,7.26172 -8.72,8.71094 -4,1.44926 -7.61,2.17966 -10.89,2.17966 H 2929.17 V 251.582" /><path
         id="path46"
         style="fill:#376eb6;fill-opacity:1;fill-rule:nonzero;stroke:none"
         d="m 3669.76,106.719 c -1.83,4.363 -4.64,7.269 -8.45,8.722 -3.81,1.45 -7.54,2.18 -11.16,2.18 H 3391.49 V 49.0117 h 289.15 V 0 c -1.46,4.35938 -4.27,7.26172 -8.44,8.71094 -4.17,1.44926 -7.89,2.17966 -11.16,2.17966 h -339.8 V 251.582 l -10.35,10.887 h 369.75 v -49 c -1.46,4.703 -4.27,7.801 -8.44,9.25 -4.17,1.453 -7.89,2.172 -11.16,2.172 H 3391.49 V 155.73 h 278.27 v -49.011" /><path
         id="path48"
         style="fill:#376eb6;fill-opacity:1;fill-rule:nonzero;stroke:none"
         d="M 4055.84,224.359 V 48.4609 h 241.79 V 224.359 Z m -71.33,26.672 -9.8,10.899 h 323.47 l 70.25,-35.95 V 10.8906 H 3984.51 V 251.031" /><path
         id="path50"
         style="fill:#376eb6;fill-opacity:1;fill-rule:nonzero;stroke:none"
         d="m 4749.05,106.719 c -1.83,4.363 -4.64,7.269 -8.44,8.722 -3.8,1.45 -7.53,2.18 -11.17,2.18 H 4470.79 V 49.0117 h 289.15 V 0 c -1.46,4.35938 -4.26,7.26172 -8.44,8.71094 -4.18,1.44926 -7.89,2.17966 -11.16,2.17966 H 4400.53 V 251.582 l -10.34,10.887 h 369.75 v -49 c -1.46,4.703 -4.26,7.801 -8.44,9.25 -4.18,1.453 -7.89,2.172 -11.16,2.172 H 4470.79 V 155.73 h 278.26 v -49.011" /><path
         id="path52"
         style="fill:#376eb6;fill-opacity:1;fill-rule:nonzero;stroke:none"
         d="m 4924.41,224.359 h -142.68 v 47.371 l 16.87,-9.261 h 343.08 v -49 c -1.82,4.703 -4.73,7.703 -8.7,8.98 -4.01,1.262 -7.65,1.91 -10.9,1.91 h -126.9 V 10.8906 h -70.77 V 224.359" /><path
         id="path54"
         style="fill:#376eb6;fill-opacity:1;fill-rule:nonzero;stroke:none"
         d="m 5297.94,141.582 h 153.03 l -40.3,82.777 h -71.34 z M 5585.47,10.8906 h -70.26 l -45.18,92.5704 h -190.6 L 5233.7,10.8906 h -70.26 l 122,240.1404 -10.35,10.899 h 185.13 L 5585.47,10.8906" /><path
         id="path56"
         style="fill:#376eb6;fill-opacity:1;fill-rule:nonzero;stroke:none"
         d="m 5617.05,251.031 -9.8,10.899 h 81.15 V 10.8906 h -71.35 V 251.031" /><path
         id="path58"
         style="fill:#376eb6;fill-opacity:1;fill-rule:nonzero;stroke:none"
         d="m 5720.52,251.582 -10.34,10.887 h 81.69 V 49.0117 h 288.62 V 0 c -1.82,4.35938 -4.74,7.26172 -8.72,8.71094 -4,1.44926 -7.63,2.17966 -10.89,2.17966 H 5720.52 V 251.582" /><path
         id="path60"
         style="fill:#376eb6;fill-opacity:1;fill-rule:nonzero;stroke:none"
         d="m 6112.05,251.031 -9.81,10.899 h 81.16 V 10.8906 h -71.35 V 251.031" /><path
         id="path62"
         style="fill:#376eb6;fill-opacity:1;fill-rule:nonzero;stroke:none"
         d="M 6504.14,10.8906 V 224.359 H 6285.77 V 10.8906 h -70.79 V 251.582 l -9.81,10.887 h 369.77 V 10.8906 h -70.8" /><path
         id="path64"
         style="fill:#376eb6;fill-opacity:1;fill-rule:nonzero;stroke:none"
         d="m 6966.45,0 c -1.45,4.35938 -4.36,7.26172 -8.7,8.71094 -3.28,1.08984 -6.19,1.80856 -8.74,2.17966 H 6607.05 V 251.582 l -10.35,10.887 h 375.19 v -49 c -1.45,4.703 -4.28,7.801 -8.44,9.25 -4.18,1.453 -7.89,2.172 -11.16,2.172 h -275 V 49.0117 h 218.92 V 117.621 H 6763.33 V 165 l 16.87,-9.27 h 186.25 V 0" /><path
         id="path66"
         style="fill:#0e0f0e;fill-opacity:1;fill-rule:nonzero;stroke:none"
         d="m 61.1641,1119.6 c 92.5429,0 184.4529,0 276.9919,0 422.153,581.53 1112.424,582.16 2014.404,444.55 -95.08,44.39 -292.85,107.8 -494.41,171.86 1048.4,360.21 2341.46,344.98 3848.77,0 -1641.05,514.94 -3008.28,462.31 -4212.61,71.03 -422.78,7.6 -844.927,14.58 -1267.712,21.55 84.937,-71.02 169.238,-142.68 254.175,-214.34 93.18,4.43 186.36,8.24 279.536,12.68 0,0 -234.532,-11.41 -278.899,-46.93 C 340.695,1559.07 11.7227,1127.21 61.1641,1119.6 v 0" /><path
         id="path68"
         style="fill:#0e0f0e;fill-opacity:1;fill-rule:evenodd;stroke:none"
         d="m 5035.67,1187.45 204.1,165.52 -1445.19,30.44 c 0,0 171.14,-48.2 349.25,-56.44 178.11,-8.25 907.68,15.85 912.12,-47.56 5.07,-63.42 -20.28,-91.96 -20.28,-91.96 v 0" /><path
         id="path70"
         style="fill:#0e0f0e;fill-opacity:1;fill-rule:evenodd;stroke:none"
         d="m 4977.35,1166.52 c -276.36,0.64 -528.63,118.59 -917.19,107.18 211.71,-11.42 695.98,-154.1 917.19,-107.18 v 0" /><path
         id="path72"
         style="fill:#376eb6;fill-opacity:1;fill-rule:evenodd;stroke:none"
         d="m 5673.33,1187.45 c 0,0 503.28,179.47 796.76,-220.688 -373.34,276.498 -796.76,220.688 -796.76,220.688 v 0" /><path
         id="path74"
         style="fill:#376eb6;fill-opacity:1;fill-rule:evenodd;stroke:none"
         d="m 5765.23,1474.09 c -279.52,-71.66 -453.84,-180.73 -607.86,-296.79 592.02,279.04 1149.18,266.99 1651.83,-204.831 h 233.26 c -44.38,80.541 -131.85,166.781 -257.98,256.841 326.44,43.75 1069.95,-82.45 884.23,-256.841 h 169.87 c -22.82,10.781 -57.68,43.761 -60.85,147.131 -3.81,152.2 660.48,57.7 660.48,57.7 -180.02,353.87 -3156.6,558.71 -5763.02,454.7 l 3090.04,-157.91" /><path
         id="path76"
         style="fill:#0e0f0e;fill-opacity:1;fill-rule:nonzero;stroke:none"
         d="M 8543.05,6.16016 H 7137.33 V 239.039 l 923.76,-46.578 -722.95,-20.109 854.4,-30.704 L 7265.12,122.602 8342.23,73.9102 7187.08,70.2109 8543.05,6.16016" /><path
         id="path78"
         style="fill:#0e0f0e;fill-opacity:1;fill-rule:nonzero;stroke:none"
         d="M 0.226563,11.9805 H 1392.14 V 244.859 L 477.449,198.281 1193.29,178.18 347.297,147.48 1265.6,128.422 199.07,79.7305 1342.88,76.0313 0.226563,11.9805" /></g></g></svg>